PathFileType	4	(X/Y/Z)	C:\Users\°ÂÌØÂü\Desktop\20210112\bx_y_0_501-Unnamed.trc
DataRate	CameraRate	NumFrames	NumMarkers	Units	OrigDataRate	OrigDataStartFrame	OrigNumFrames
50.00	50.00	       8	0	mm	50.00	151	       603
Frame#	Time	
		

151	3.000	-662.26837	-59.55353	1550.51074	-645.43365	288.68765	876.07861	-598.88824	7.14372	1049.47388	-595.39404	118.50362	1431.37891	-593.15204	2.79141	800.95929	-587.10480	222.68800	814.02124	-730.83813	254.62744	638.06915	-693.24646	148.90573	572.31097	-733.76056	250.01540	574.73578	-672.19299	23.97437	520.10876	-773.68005	258.52710	501.52109	-679.07135	210.62477	532.31714	-661.72205	-60.87087	864.93536	-663.24792	-65.89474	164.21980	-711.81317	152.65636	216.60201	-771.78900	222.38287	205.37984	-622.33710	-76.47865	159.51912	-882.53644	296.19745	144.72226	-674.90088	57.02615	156.88351	-603.49872	20.50767	165.68495	-675.48584	172.98163	157.42899	-594.56268	222.41112	173.55122	-667.45483	299.41034	159.66197	-630.03461	306.49112	161.75693	-560.51019	261.11008	165.95055	-528.03156	304.52658	146.55516	-608.73767	133.83252	1846.58862	-685.47760	299.71652	1540.12927	-517.73572	-72.35222	142.92180	-796.35266	172.04909	184.27634	-766.47424	-4.14072	208.64864	-794.55334	55.99842	175.23846	-795.37366	105.43356	1060.55334	-767.18756	-30.37024	488.81055	-559.49738	-39.36885	165.15881	-876.00482	-78.69706	141.35422	-691.22461	-47.43861	732.02057	-714.50244	-23.10413	612.98499	-722.14673	-20.03182	568.02936	-716.90887	79.13208	216.00620	-589.86780	229.41414	1068.43347	-690.69098	272.63739	716.18579	-694.99329	84.64255	570.21753	
152	3.020	-660.59503	-59.77105	1550.70642	-646.10516	288.57004	876.53625	-600.04541	6.91988	1049.54761	-594.69147	118.27572	1431.38892	-593.98358	2.70126	801.52380	-587.34222	222.54634	814.14337	-731.47003	254.68631	638.10846	-693.94293	148.52606	572.10016	-734.78064	250.05803	574.74762	-672.45764	23.73055	519.96967	-774.31982	258.53320	501.40219	-679.53711	210.96173	532.43250	-662.92694	-60.70294	864.62585	-663.14746	-65.96755	164.32080	-711.92291	152.88208	216.38907	-771.66437	222.48170	204.86548	-622.40918	-76.59776	159.50166	-882.56763	296.16724	144.62521	-674.81793	56.94137	156.83820	-603.37830	20.55385	165.74561	-675.43665	172.87697	157.48341	-594.77527	222.42378	173.43567	-667.31152	299.32321	159.71210	-630.00415	306.55103	161.78523	-560.57312	261.07236	166.01433	-528.07855	304.32205	146.58138	-603.57886	133.70052	1845.79187	-684.16620	300.15585	1540.67883	-517.79657	-72.59055	142.99619	-796.38782	172.04736	184.22406	-766.52112	-4.34393	208.38000	-794.49506	56.04362	175.11934	-796.37720	105.41553	1060.63611	-767.18756	-30.37024	488.81055	-559.39716	-39.33087	165.05458	-876.09265	-78.76758	141.59384	-691.82782	-48.03704	732.69580	-714.81104	-23.05060	612.83136	-722.42468	-20.05688	567.85040	-717.04956	79.04850	215.86414	-590.05493	229.67377	1068.46912	-691.64746	273.21048	716.63232	-694.99329	84.64255	570.21753	
153	3.040	-658.90894	-59.89561	1550.52917	-647.35071	288.80890	876.72076	-600.53308	6.66274	1049.66394	-593.70728	117.91482	1430.59326	-594.43402	2.82454	801.65021	-588.42004	222.57318	814.29688	-732.00952	254.46265	637.68719	-694.41522	148.38005	572.20386	-735.27936	249.96626	574.54529	-672.80273	23.61564	520.09369	-774.70386	258.42566	501.23822	-679.64270	210.57207	532.84216	-663.95795	-60.58593	864.46301	-663.30103	-65.93968	164.29651	-711.93890	152.59473	216.71255	-771.82715	222.52095	205.24020	-622.40894	-76.59716	159.71764	-882.53467	296.29968	144.81888	-674.90088	57.02615	156.88351	-603.47565	20.44206	165.93300	-675.13177	172.98479	157.70276	-594.63794	222.28062	173.50172	-667.45483	299.41034	159.66197	-630.04517	306.50266	161.74895	-560.56683	261.13159	166.21191	-528.12799	304.54727	146.78020	-598.13824	133.37277	1844.71155	-682.05969	299.42819	1540.47009	-517.68134	-72.46423	143.05693	-796.35266	172.04909	184.27634	-766.56329	-4.30402	208.38307	-794.49506	56.04362	175.11934	-797.38739	105.05409	1060.87781	-767.54828	-30.49017	488.78162	-559.39716	-39.33087	165.05458	-876.15240	-78.38743	141.58084	-692.92474	-47.98178	732.52399	-715.33112	-23.38014	613.10168	-722.87347	-20.00254	567.81445	-717.04956	79.04850	215.86414	-591.65826	229.50575	1068.17517	-692.21814	273.22299	716.60992	-695.39801	84.63422	570.18378	
154	3.060	-657.30768	-60.00945	1550.56812	-648.25983	288.86716	876.66772	-601.21399	6.54589	1049.64063	-593.11865	117.81167	1430.59900	-595.67145	2.69709	801.53235	-589.91992	222.65909	814.10437	-732.38159	254.37428	637.54578	-695.04211	148.51448	572.02979	-735.37488	249.97348	574.66821	-673.06323	23.58142	520.19916	-775.06372	258.24994	501.31421	-680.33746	210.65659	532.53931	-664.78979	-61.16956	865.03516	-663.27466	-65.96424	164.30399	-712.20654	152.65933	216.63019	-771.86719	222.54314	204.81389	-622.39728	-76.52328	159.58888	-882.54730	296.17606	144.64073	-675.00031	56.90664	157.14217	-603.54492	20.33419	165.94521	-675.48163	172.69456	157.53186	-594.71143	222.39023	173.49280	-667.51392	299.35867	159.65941	-630.08466	306.47568	161.83969	-560.62915	260.99655	166.09837	-528.12799	304.54727	146.78020	-592.17542	133.06354	1843.78040	-680.61774	299.30161	1540.67664	-517.80908	-72.42673	142.85774	-796.38782	172.04736	184.22406	-766.57037	-4.27986	208.41383	-794.62653	56.17558	175.04829	-798.11188	105.39027	1061.05322	-767.84149	-30.58173	488.50894	-559.39716	-39.33087	165.05458	-876.00958	-78.54777	141.49852	-693.61407	-48.18081	732.46747	-715.84729	-23.17551	613.16980	-723.48425	-20.07009	567.88397	-717.04956	79.04850	215.86414	-592.73499	229.03180	1067.98743	-692.96338	273.60773	716.76031	-695.94897	84.45889	570.10376	
155	3.080	-655.40186	-60.19770	1550.63757				-602.67480	6.63274	1049.68481	-591.77411	117.47453	1430.00830	-596.36847	2.27103	801.63629	-590.28864	222.33780	814.77216	-733.09637	254.80594	637.76691	-695.13214	148.34410	571.86334	-735.80713	250.20309	574.80811	-673.50824	23.60517	520.53101	-775.43951	258.21884	501.11938	-680.62903	210.88153	532.51068	-666.29486	-61.18441	865.08191	-663.14130	-66.06730	164.23375	-712.02081	152.84309	216.81047	-771.89789	222.45911	204.63281	-622.68213	-76.50119	159.53314	-882.60638	296.13708	144.65926	-675.00031	56.90664	157.14217	-603.47565	20.44206	165.93300	-675.52332	173.07549	157.42996	-594.77527	222.42378	173.43567	-667.41968	299.30194	159.72699	-630.04517	306.50266	161.74895	-560.59680	261.10626	166.11497	-528.03589	304.71042	146.77905	-585.95264	132.83313	1842.51990	-679.07855	299.15454	1540.86243	-517.64917	-72.68082	143.06824	-796.50964	171.98721	184.28180	-766.61926	-4.36150	208.19408	-794.70361	56.17707	175.28564	-799.34509	105.00468	1061.25146	-768.21332	-30.57474	488.41531	-559.39716	-39.33087	165.05458	-876.02838	-78.54763	141.55200	-694.40320	-48.28693	732.71063	-716.30237	-23.67440	613.46747	-724.23291	-20.20553	567.88599	-717.13696	79.07013	215.73640	-593.01343	228.86629	1068.15295	-693.95343	273.26816	716.51105	-695.30817	84.11190	569.81976	
156	3.100	-653.90900	-60.17228	1550.70691	-650.11877	288.61169	876.66052	-603.32861	6.14927	1049.83594	-590.61841	117.64851	1430.11218	-597.21918	2.11951	801.73267	-591.58478	222.20514	814.34320	-733.85858	254.42673	638.01910	-694.24451	148.93341	571.64221	-736.47168	250.19963	575.02582	-674.18176	23.96993	520.37427	-776.21582	258.12085	501.09879	-681.34918	210.61809	532.27484	-666.88599	-61.20399	864.90137	-663.35168	-66.09299	164.30046	-712.27783	152.80119	216.67838	-771.99261	222.38553	204.80840	-622.60425	-76.48109	159.65013	-882.43616	296.14734	144.72641	-675.00031	56.90664	157.14217	-603.37781	20.30887	166.02737	-675.42285	173.11549	157.37820	-594.77527	222.42378	173.43567	-667.38885	299.39075	159.43813	-630.00415	306.55103	161.78523	-560.52112	261.10074	166.28438	-527.94897	304.68036	146.89655	-578.84454	132.52132	1840.89380	-677.31165	298.82083	1541.20081	-517.70813	-72.56736	142.93413	-796.35645	172.09767	184.22598	-766.64569	-4.28886	208.26045	-794.75006	55.91485	175.41173	-800.01141	104.91026	1061.34399	-768.69568	-30.54872	488.36130	-559.37976	-39.41095	165.13606	-876.13446	-78.66106	141.72231	-695.35425	-47.89740	732.07098	-717.24500	-23.24871	613.10779	-724.57336	-20.34793	567.93732	-717.13696	79.07013	215.73640	-594.56866	229.08754	1067.87720	-694.52649	273.20404	716.57666	-695.62292	84.13299	569.88196	
157	3.120	-652.03363	-60.54889	1550.35193	-650.93561	288.59641	877.04224	-604.63806	6.42856	1049.62585	-589.38788	117.89233	1429.53552	-598.32550	2.30278	801.91687	-592.44635	222.60994	814.34479	-734.65149	254.96249	638.27448	-696.22491	148.70963	572.00061	-737.12061	250.21513	574.77161	-674.86279	23.83449	520.29718	-776.38251	258.13394	501.04578	-681.94067	210.75847	532.74512	-668.12756	-60.97880	864.69000	-663.33197	-65.98524	164.24167	-712.10236	152.59367	216.90883	-771.99359	222.52757	205.00401	-622.48950	-76.52219	159.77846	-882.50659	296.28424	144.83293	-674.87933	56.91057	157.02075	-603.41986	20.46189	166.07834	-675.29205	172.76010	157.61099	-594.78271	222.44064	173.55219	-667.52576	299.29492	159.53905	-630.04919	306.57126	161.68942	-560.63702	261.08408	166.12216	-528.08289	304.50589	146.80527	-571.52954	132.06250	1839.40527	-675.55756	298.68701	1541.36389	-517.68604	-72.55746	143.20569	-796.41272	172.08954	184.29314	-766.64893	-4.30323	208.23878	-794.62817	56.09890	175.06479	-801.01904	104.90066	1061.62732	-769.21857	-30.48050	488.47467	-559.46472	-39.23097	165.03134	-876.02838	-78.54763	141.55200	-696.39319	-48.35019	732.27667	-717.93561	-23.51093	613.16943	-724.83917	-20.29285	567.95551	-717.14746	78.98853	215.98970	-595.08704	229.37340	1068.56970	-695.81012	273.25574	716.62915	-696.11011	83.96367	569.11841	
158	3.140	-650.18451	-60.76393	1550.35242	-652.29218	288.67471	876.77588	-605.49847	6.18587	1049.51746	-588.35175	117.49355	1428.77563	-599.04926	2.16370	802.08307	-593.45032	221.81651	814.66840	-735.01886	254.66356	638.04022	-695.96967	149.26001	572.02869	-737.72156	249.84613	574.47302	-674.85065	23.74550	520.43646	-776.72424	258.59451	501.38391	-682.49805	210.75829	532.89490	-668.87177	-61.09967	864.61383	-663.37634	-66.16262	164.09486	-712.18378	152.78107	216.77661	-772.02063	222.31137	204.71800	-622.37555	-76.52731	159.82332	-882.50006	296.18253	144.69447	-674.87933	56.91057	157.02075	-603.36969	20.44086	165.93175	-675.41895	172.59325	157.55640	-594.77527	222.42378	173.43567	-667.45483	299.41034	159.66197	-629.91895	306.44705	161.54883	-560.61273	261.06354	166.23889	-528.10126	304.34537	146.71083	-564.01410	131.52782	1837.40039	-674.04431	298.20380	1541.38135	-517.89185	-72.41901	142.57906	-796.43073	171.95758	184.12112	-766.75928	-4.14179	208.21307	-794.75018	56.09279	174.99913	-802.46649	104.63076	1061.57898	-769.66541	-30.80484	488.62122	-559.48004	-39.44893	165.24031	-876.03320	-78.59757	141.50241	-696.85809	-48.64799	732.79926	-718.37451	-23.24484	612.85852	-725.29242	-20.08831	567.80341	-717.13696	79.07013	215.73640	-597.06830	228.65198	1068.06213	-696.30316	273.33255	716.58502	-696.63770	84.43124	570.13287	
